<?xml version="1.0" standalone="no"?>
<!DOCTYPE svg PUBLIC "-//W3C//DTD SVG 20010904//EN"
 "http://www.w3.org/TR/2001/REC-SVG-20010904/DTD/svg10.dtd">
<svg version="1.0" xmlns="http://www.w3.org/2000/svg"
 width="700.000000pt" height="700.000000pt" viewBox="0 0 700.000000 700.000000"
 preserveAspectRatio="xMidYMid meet">
<metadata>
Created by potrace 1.11, written by Peter Selinger 2001-2013
</metadata>
<g transform="translate(0.000000,700.000000) scale(0.100000,-0.100000)"
fill="#000000" stroke="none">
<path d="M3273 6648 c-62 -40 -162 -104 -223 -143 -61 -38 -159 -101 -218
-139 -59 -38 -156 -101 -217 -139 -60 -39 -155 -99 -210 -135 -55 -35 -267
-170 -471 -300 -846 -541 -933 -597 -929 -600 4 -4 62 -4 350 3 703 16 802 18
1375 30 551 11 653 14 656 18 2 2 3 335 2 740 l-3 737 -112 -72z m-358 -706
c65 -33 73 -85 23 -153 -64 -89 -114 -126 -218 -164 -91 -33 -120 -39 -185
-38 -72 0 -98 8 -163 46 -121 73 -153 60 -150 -62 3 -98 -11 -123 -79 -142
-26 -7 -54 -15 -60 -17 -10 -3 -13 34 -13 162 l0 165 58 17 c70 20 173 26 232
13 25 -6 74 -24 110 -41 113 -54 238 -38 317 40 33 34 36 49 13 77 -12 15 -26
17 -86 12 l-71 -6 2 26 c1 29 35 60 75 69 114 24 143 23 195 -4z"/>
<path d="M3610 5981 l0 -741 48 -1 c26 0 101 -2 167 -4 136 -3 568 -13 940
-21 138 -2 324 -7 415 -9 91 -2 314 -7 495 -10 l330 -6 -50 33 c-44 30 -711
458 -752 483 -18 11 -80 50 -473 302 -146 93 -292 186 -325 207 -33 20 -154
98 -269 171 -116 74 -246 158 -290 186 -45 29 -110 71 -146 94 -36 23 -71 45
-77 49 -10 6 -13 -144 -13 -733z m605 -24 c48 -15 96 -38 154 -75 31 -20 65
-34 80 -33 126 8 196 -5 285 -52 85 -45 179 -148 190 -209 2 -13 -2 -38 -9
-55 -24 -56 -81 -71 -179 -47 -78 20 -125 50 -126 81 0 16 55 33 105 33 58 0
75 21 48 58 -33 45 -105 83 -166 89 -49 5 -56 3 -62 -16 -9 -29 -41 -44 -79
-37 -33 6 -69 38 -101 89 -22 35 -76 63 -138 72 -114 17 -98 -69 25 -131 27
-13 48 -27 48 -31 0 -3 -7 -15 -17 -25 -24 -27 -70 -22 -125 13 -86 56 -148
142 -148 210 0 19 36 54 70 68 29 12 102 11 145 -2z"/>
<path d="M3007 5013 c-1 0 -139 -4 -307 -7 -300 -6 -509 -11 -925 -21 -115 -3
-345 -7 -510 -11 -440 -9 -495 -10 -500 -16 -3 -2 22 -76 54 -164 189 -508
408 -1101 436 -1179 33 -89 328 -890 419 -1135 26 -69 49 -132 52 -140 5 -13
47 52 143 221 14 25 91 157 171 293 80 136 153 261 164 279 10 18 64 111 121
207 178 304 477 814 497 850 11 19 121 207 245 418 123 211 226 389 229 397 4
11 -22 13 -141 12 -81 -1 -147 -3 -148 -4z m-837 -488 c88 -59 126 -164 84
-233 -41 -70 -82 -63 -118 18 -59 131 -148 133 -236 5 -41 -60 -39 -71 9 -67
148 14 266 -160 221 -326 -36 -132 -136 -255 -235 -289 -34 -12 -115 -8 -160
7 -85 29 -147 133 -147 245 0 44 42 209 71 280 56 134 99 204 165 271 92 91
159 125 241 121 48 -2 70 -9 105 -32z"/>
<path d="M1840 4111 c-59 -24 -100 -103 -101 -195 -1 -62 12 -99 43 -120 84
-59 198 45 201 184 1 50 -2 63 -23 85 -39 42 -87 60 -120 46z"/>
<path d="M3704 5005 c3 -8 68 -122 145 -252 76 -131 149 -256 161 -278 12 -22
26 -44 30 -50 4 -5 17 -27 29 -48 12 -21 119 -205 239 -410 120 -205 235 -401
256 -437 20 -36 42 -74 49 -85 7 -10 22 -36 34 -56 30 -51 542 -927 563 -964
9 -16 27 -45 38 -64 l21 -35 9 25 c5 13 60 161 122 329 62 168 160 433 218
590 58 157 111 301 118 320 7 19 87 238 179 485 92 248 171 464 177 480 5 17
16 44 24 62 8 17 14 34 14 38 0 5 25 73 55 152 30 80 55 147 55 151 0 4 -30 7
-68 8 -99 1 -742 15 -927 19 -88 2 -279 6 -425 9 -514 11 -757 17 -938 21
-156 3 -183 2 -178 -10z m1571 -355 c262 -98 443 -601 293 -813 -11 -15 -47
-41 -80 -58 -88 -44 -148 -34 -250 44 -57 44 -116 129 -174 253 -165 350 -111
604 126 589 30 -2 69 -9 85 -15z m-577 -249 c12 -26 35 -77 51 -112 16 -35 67
-149 114 -254 47 -104 99 -220 116 -258 17 -37 31 -70 31 -72 0 -3 13 -31 29
-64 19 -40 25 -61 17 -64 -6 -3 -37 -17 -68 -31 l-58 -26 -43 93 c-24 50 -85
183 -137 295 -51 111 -96 201 -99 199 -53 -30 -129 -57 -146 -53 -23 6 -45 44
-45 78 0 13 22 42 54 72 49 47 53 54 55 101 3 77 18 115 55 131 47 20 52 18
74 -35z"/>
<path d="M5152 4512 c-34 -22 -32 -115 8 -262 31 -116 134 -286 190 -315 75
-39 114 -2 112 105 -1 81 -2 85 -47 195 -67 164 -112 228 -186 266 -42 21 -57
23 -77 11z"/>
<path d="M3375 4704 c-66 -113 -129 -222 -141 -243 -12 -20 -130 -223 -264
-451 -134 -228 -329 -561 -433 -740 -105 -179 -251 -428 -325 -555 -74 -126
-146 -250 -159 -274 -14 -23 -53 -91 -88 -150 l-64 -106 799 -3 c440 -1 1160
-1 1599 0 l799 3 -219 374 c-120 206 -219 375 -219 376 0 1 -31 53 -68 116
-38 63 -80 134 -94 159 -30 53 -34 60 -444 760 -176 300 -371 634 -434 742
-63 109 -117 198 -120 198 -3 0 -59 -93 -125 -206z m-218 -1128 c49 -6 134
-49 171 -87 18 -18 45 -53 60 -78 23 -39 27 -58 27 -121 0 -142 -73 -244 -240
-335 -133 -73 -193 -131 -166 -158 6 -6 89 -10 205 -10 220 1 206 6 195 -81
-3 -28 -13 -54 -22 -61 -12 -9 -97 -11 -324 -8 -169 1 -312 3 -317 3 -8 0 -6
25 8 90 10 43 54 124 96 171 22 26 86 79 144 118 205 139 262 227 215 328 -15
30 -32 47 -63 62 -84 41 -132 23 -187 -70 -42 -73 -68 -96 -109 -99 -93 -7
-110 16 -80 106 37 108 83 164 166 204 47 23 124 39 164 34 14 -2 39 -6 57 -8z
m843 -22 c108 -38 177 -135 224 -314 19 -71 14 -266 -8 -333 -42 -131 -120
-226 -224 -275 -101 -46 -225 -17 -318 76 -46 46 -97 129 -109 177 -55 232
-32 404 76 561 80 117 218 158 359 108z"/>
<path d="M3837 3401 c-67 -44 -92 -132 -91 -321 0 -111 7 -157 34 -216 28 -64
62 -94 106 -94 51 0 107 58 123 127 19 85 21 106 22 213 0 124 -23 214 -71
273 -36 43 -77 49 -123 18z"/>
<path d="M710 4024 c0 -239 4 -413 9 -410 5 3 14 -1 21 -9 18 -22 37 -18 56
10 20 31 30 31 45 3 15 -28 18 -844 3 -842 -5 0 -18 18 -29 40 -18 36 -20 60
-21 290 -2 266 -7 329 -30 342 -8 4 -23 30 -34 58 l-19 49 -1 -734 0 -734 58
7 c31 3 86 9 122 12 36 3 85 7 110 10 25 2 72 6 105 9 72 6 167 15 215 20 50
5 203 18 218 18 18 0 16 12 -27 127 -22 58 -55 149 -75 202 -20 54 -52 142
-72 196 -20 53 -54 147 -76 207 -22 61 -46 124 -53 140 -7 17 -16 41 -20 55
-3 14 -10 34 -15 45 -5 11 -38 99 -74 195 -248 678 -349 950 -361 980 -7 19
-21 56 -31 83 -9 26 -18 47 -20 47 -2 0 -4 -187 -4 -416z m373 -726 c38 -51
63 -107 80 -183 26 -115 29 -133 18 -139 -12 -8 -48 42 -57 80 -8 37 -47 124
-55 124 -20 0 -41 -44 -44 -97 -4 -58 -4 -60 19 -56 19 4 28 -5 59 -64 80
-153 111 -318 87 -462 -14 -83 -36 -106 -73 -74 -61 52 -102 122 -119 198 -36
167 -46 246 -45 368 0 127 16 268 37 315 15 35 63 30 93 -10z"/>
<path d="M1029 2873 c-22 -54 -5 -185 33 -261 16 -31 48 -48 58 -32 8 13 5
169 -3 207 -9 38 -56 113 -71 113 -4 0 -11 -12 -17 -27z"/>
<path d="M6251 4353 c-18 -49 -36 -97 -41 -108 -4 -11 -45 -121 -90 -245 -45
-124 -108 -295 -140 -380 -32 -85 -131 -353 -220 -595 -89 -242 -195 -530
-236 -641 -41 -110 -74 -205 -74 -212 0 -6 8 -10 18 -10 9 1 51 -2 92 -6 41
-4 98 -9 125 -12 28 -2 74 -7 103 -9 28 -3 76 -7 105 -10 28 -3 79 -7 112 -10
33 -3 80 -7 105 -10 25 -3 75 -7 113 -11 l67 -6 0 1176 c0 647 -2 1176 -4
1176 -2 0 -18 -39 -35 -87z m2 -743 c17 -32 18 -55 13 -265 -4 -144 -11 -256
-20 -300 -8 -38 -17 -81 -20 -94 -23 -105 -98 -231 -138 -231 -26 0 -51 62
-43 104 7 33 45 96 58 96 5 0 6 -4 2 -9 -14 -23 17 -19 39 4 42 45 75 165 67
244 -1 11 -4 11 -16 1 -8 -7 -15 -17 -15 -23 0 -27 -45 -99 -70 -112 -41 -21
-55 -11 -70 48 -32 124 -5 312 66 466 44 96 60 113 98 109 24 -2 35 -11 49
-38z m-319 -687 l-1 -408 -28 -43 c-15 -23 -29 -42 -30 -42 -1 0 -2 126 -1
280 0 154 -1 280 -4 280 -3 0 -18 -16 -33 -35 -15 -19 -34 -35 -42 -35 -25 0
-18 62 14 121 15 30 40 95 55 144 28 92 56 156 65 150 4 -2 6 -187 5 -412z"/>
<path d="M6140 3481 c-29 -56 -49 -211 -34 -269 16 -60 73 21 94 134 14 76 10
113 -16 138 -20 21 -31 20 -44 -3z"/>
<path d="M1975 1960 c-9 -3 4 -24 43 -66 71 -76 221 -240 245 -267 10 -12 44
-48 75 -82 31 -33 98 -105 147 -160 50 -54 99 -108 110 -119 11 -12 58 -64
105 -116 47 -52 96 -106 110 -120 14 -14 65 -70 115 -125 49 -55 99 -109 110
-120 11 -11 61 -65 110 -120 50 -55 95 -105 100 -111 36 -40 205 -223 229
-247 l29 -31 19 24 c11 13 58 66 106 118 48 52 98 106 111 120 13 15 49 54 80
87 31 33 99 107 151 165 91 101 142 157 226 247 22 23 56 61 78 85 21 24 57
63 80 88 23 25 91 99 151 165 61 66 115 125 120 131 6 6 48 53 95 104 47 51
96 105 110 119 54 56 210 229 210 232 0 6 -3049 5 -3065 -1z m1234 -235 c16
-5 17 -30 17 -298 l-1 -292 -90 0 -90 0 0 195 c0 107 -4 200 -7 206 -5 7 -42
9 -105 6 -98 -4 -99 -4 -110 21 -18 39 13 60 97 68 62 5 73 10 115 47 26 22
56 42 68 44 47 7 90 9 106 3z m684 -14 l237 -1 0 -40 c0 -65 -18 -71 -201 -67
-175 4 -211 -2 -227 -39 -21 -44 -13 -62 23 -54 6 1 19 4 30 6 107 24 259 -8
343 -73 38 -29 71 -94 67 -133 -9 -96 -96 -157 -282 -197 -78 -17 -216 -1
-289 33 -38 17 -94 78 -94 102 0 35 15 43 79 41 58 -2 67 -5 108 -41 24 -21
52 -38 61 -39 9 -1 26 -2 37 -3 41 -2 140 26 162 46 32 30 31 90 0 124 -36 39
-108 53 -182 37 -136 -29 -182 -34 -213 -20 -31 14 -36 44 -17 116 8 34 18 80
21 104 7 48 28 93 46 100 7 3 22 3 33 2 11 -2 127 -4 258 -4z"/>
<path d="M1648 1955 c-1 -1 -39 -6 -83 -9 -44 -3 -100 -8 -125 -11 -25 -2 -76
-7 -115 -10 -38 -3 -88 -7 -110 -10 -22 -2 -71 -7 -110 -10 -98 -9 -159 -16
-163 -19 -1 -2 49 -37 113 -77 64 -41 150 -96 193 -124 42 -27 133 -86 202
-129 69 -44 170 -109 224 -144 99 -64 149 -90 115 -61 -9 8 -46 53 -83 101
-78 101 -158 177 -218 207 -49 25 -105 68 -97 75 5 6 44 -4 83 -20 15 -6 18
-4 13 8 -11 30 22 27 70 -5 34 -23 101 -100 228 -261 l181 -230 114 -73 c320
-205 732 -468 750 -478 12 -7 -31 46 -75 91 -14 15 -176 193 -195 214 -8 9
-56 62 -107 116 -50 55 -100 109 -110 120 -10 12 -61 67 -113 124 -52 57 -99
108 -105 114 -43 48 -238 261 -275 301 -26 28 -75 82 -111 121 -60 68 -82 87
-91 79z m412 -515 c0 11 4 20 9 20 17 0 83 -51 125 -97 64 -70 355 -418 352
-421 -7 -7 -86 34 -123 64 -23 19 -85 88 -136 152 -116 144 -155 183 -215 212
-68 33 -112 63 -112 77 0 9 14 7 50 -7 50 -20 50 -20 50 0z"/>
<path d="M5321 1940 c-9 -9 -56 -60 -106 -115 -49 -54 -101 -110 -115 -125
-14 -15 -65 -72 -115 -126 -49 -54 -119 -129 -154 -167 -35 -37 -62 -69 -60
-72 3 -2 44 26 93 63 116 88 175 126 182 119 4 -3 -13 -30 -37 -59 -24 -29
-53 -64 -64 -77 -11 -13 -29 -33 -40 -45 -11 -12 -48 -57 -83 -101 -85 -108
-173 -196 -224 -225 l-42 -23 84 109 c133 174 145 189 153 192 4 2 7 8 7 13 0
17 -104 -42 -135 -76 -16 -18 -70 -77 -120 -131 -100 -109 -98 -106 -210 -229
-44 -49 -84 -93 -90 -100 -5 -6 -28 -31 -50 -54 -38 -41 -38 -42 -10 -27 17 9
112 69 212 134 100 64 314 201 475 304 269 173 342 228 323 246 -4 4 -60 -21
-126 -56 -65 -35 -119 -59 -119 -54 0 32 504 456 605 509 37 19 68 33 70 31 2
-2 -32 -48 -76 -103 -44 -55 -90 -113 -101 -129 l-21 -28 21 11 c11 6 24 11
28 11 14 0 -60 -71 -98 -96 -21 -13 -38 -28 -38 -33 0 -5 162 94 360 221 199
127 360 232 358 234 -4 3 -79 12 -270 29 -32 3 -84 7 -115 10 -109 10 -168 16
-222 21 -101 11 -114 11 -130 -6z"/>
<path d="M5280 1514 c-187 -157 -195 -173 -32 -62 65 45 187 172 160 168 -2
-1 -59 -48 -128 -106z"/>
</g>
</svg>
